<?xml version="1.0" encoding="UTF-8"?>
<svg xmlns="http://www.w3.org/2000/svg" xmlns:xlink="http://www.w3.org/1999/xlink" width="1000px" height="1000px" viewBox="0 0 1000 1000" version="1.1">
<g id="surface1">
<path style=" stroke:none;fill-rule:nonzero;fill:rgb(0%,0%,0%);fill-opacity:1;" d="M 453 320.800781 C 444.601562 324.398438 436.398438 334.601562 434.800781 343.199219 C 432 358.199219 436 364.601562 471.601562 400.601562 L 504.800781 434.199219 L 537.601562 401.601562 C 555.601562 383.601562 571.601562 366.199219 573.199219 362.601562 C 579.800781 347.199219 573.601562 329 559 322 C 543.800781 314.601562 532.398438 317.800781 515.398438 333.800781 L 504.800781 343.800781 L 495.800781 334.800781 C 480.601562 319.199219 467 314.601562 453 320.800781 Z M 514 358.800781 C 514 365.398438 514.398438 365.800781 521.601562 366.398438 C 529 367 529 367 529 376 C 529 385 529 385 521.601562 385.601562 C 514.398438 386.199219 514 386.601562 514 393.199219 C 514 400 514 400 505 400 C 496 400 496 400 496 393 C 496 386.398438 495.601562 386 489 386 L 482 386 L 482 366 L 489 366 C 495.601562 366 496 365.601562 496 359 C 496 352 496 352 505 352 C 514 352 514 352 514 358.800781 Z M 514 358.800781 "/>
<path style=" stroke:none;fill-rule:nonzero;fill:rgb(0%,0%,0%);fill-opacity:1;" d="M 621.199219 430 C 608.199219 449.800781 572.199219 482.601562 552.398438 492.800781 C 531 503.800781 570.601562 491.800781 595 479.800781 C 613 471 629 459 630.800781 453 C 633.398438 443.800781 631.398438 422 628 422 C 627.199219 422 624.199219 425.601562 621.199219 430 Z M 621.199219 430 "/>
<path style=" stroke:none;fill-rule:nonzero;fill:rgb(0%,0%,0%);fill-opacity:1;" d="M 660.398438 435.800781 C 628 478.398438 580.800781 508 527.601562 518.800781 C 497 525.199219 480 522 480 510.199219 C 480 505.199219 480.800781 504.601562 492.601562 502.601562 C 526.199219 496.800781 548 480.398438 548 461.398438 L 548 456.601562 L 531.601562 461.398438 C 510.199219 467.601562 485.800781 469.199219 460.800781 466 C 434.800781 462.800781 403.800781 463 389.398438 467 C 358.601562 475 334 496 313.199219 532 C 299.601562 555.398438 299.398438 554.398438 317.398438 562 C 394.800781 594.601562 466.800781 604.398438 523.398438 590 C 542.800781 585 574.601562 569.398438 593 555.601562 C 628 529.601562 665 484.398438 672.800781 458.601562 C 676.601562 446.199219 676.601562 427.800781 672.800781 424 C 671.601562 422.800781 666.800781 427.398438 660.398438 435.800781 Z M 660.398438 435.800781 "/>
<path style=" stroke:none;fill-rule:nonzero;fill:rgb(0%,0%,0%);fill-opacity:1;" d="M 456 643 C 456 646.800781 463 660 464.601562 659.398438 C 467.398438 658.601562 474.398438 642 472 642 C 470.800781 642 468.800781 645 467.199219 648.398438 L 464.398438 655 L 462 648.398438 C 460.601562 645 458.800781 642 457.800781 642 C 456.800781 642 456 642.398438 456 643 Z M 456 643 "/>
<path style=" stroke:none;fill-rule:nonzero;fill:rgb(0%,0%,0%);fill-opacity:1;" d="M 476 651 C 476 656 477 660 478 660 C 479.199219 660 480 656 480 651 C 480 646 479.199219 642 478 642 C 477 642 476 646 476 651 Z M 476 651 "/>
<path style=" stroke:none;fill-rule:nonzero;fill:rgb(0%,0%,0%);fill-opacity:1;" d="M 486 651 C 486 659.199219 486.398438 660 490.800781 660 C 493.398438 660 497.601562 658.398438 500.199219 656.199219 C 504.398438 653 504.601562 651.800781 502.398438 647.199219 C 500.601562 643 498.601562 642 493 642 C 486 642 486 642 486 651 Z M 497.800781 646.800781 C 500.800781 650.398438 498.398438 656 493.800781 656 C 491 656 490 654.601562 490 650 C 490 643.601562 493.800781 642 497.800781 646.800781 Z M 497.800781 646.800781 "/>
<path style=" stroke:none;fill-rule:nonzero;fill:rgb(0%,0%,0%);fill-opacity:1;" d="M 509.199219 650.199219 C 507.398438 654.800781 506.398438 659 507.199219 659.800781 C 508 660.398438 509 659.800781 509.398438 658.398438 C 510.601562 655.398438 518.398438 655.199219 521.601562 658.398438 C 524.800781 661.601562 524.601562 659.601562 520.800781 650 C 519 645.601562 516.398438 642 515 642 C 513.601562 642 511 645.800781 509.199219 650.199219 Z M 518 651.199219 C 518 652.800781 516.601562 654 515 654 C 512 654 510.800781 649.800781 513.199219 647.398438 C 515.199219 645.601562 518 647.800781 518 651.199219 Z M 518 651.199219 "/>
<path style=" stroke:none;fill-rule:nonzero;fill:rgb(0%,0%,0%);fill-opacity:1;" d="M 528 651 C 528 656 529 660 530 660 C 531.199219 660 532 658.601562 532 657 C 532 655.398438 533.199219 654 534.800781 654 C 536.398438 654 538 655.398438 538.800781 657 C 539.398438 658.601562 541 660 542.199219 660 C 543.800781 660 543.800781 659.199219 542 657 C 540.199219 654.800781 540 653.398438 541.800781 651.199219 C 545.601562 646.601562 542.199219 642 534.800781 642 C 528 642 528 642.199219 528 651 Z M 539.601562 647.398438 C 538.601562 652.601562 532 653.199219 532 648.199219 C 532 645.199219 533.199219 644 536.199219 644 C 539 644 540 645 539.601562 647.398438 Z M 539.601562 647.398438 "/>
</g>
</svg>
